<svg width="64" height="64" viewBox="0 0 64 64" fill="none" xmlns="http://www.w3.org/2000/svg">
<rect width="64" height="64" rx="32" fill="#EEEEF0"/>
<path d="M40.9689 47.525C39.1314 49.3063 37.1252 49.025 35.1939 48.1813C33.1502 47.3188 31.2752 47.2812 29.1189 48.1813C26.4189 49.3438 24.9939 49.0063 23.3814 47.525C14.2314 38.0938 15.5814 23.7313 25.9689 23.2063C28.5002 23.3375 30.2627 24.5938 31.7439 24.7063C33.9564 24.2563 36.0752 22.9625 38.4377 23.1313C41.2689 23.3563 43.4064 24.4812 44.8127 26.5063C38.9627 30.0125 40.3502 37.7188 45.7127 39.875C44.6439 42.6875 43.2564 45.4813 40.9502 47.5438L40.9689 47.525ZM31.5564 23.0938C31.2752 18.9125 34.6689 15.4625 38.5689 15.125C39.1127 19.9625 34.1814 23.5625 31.5564 23.0938Z" fill="black"/>
</svg>
