<svg width="48" height="48" viewBox="0 0 48 48" fill="none" xmlns="http://www.w3.org/2000/svg">
<rect x="-0.5" y="-0.5" width="39" height="39" rx="19.5" transform="matrix(1.19249e-08 -1 -1 -1.19249e-08 43 43)" fill="white" stroke="#000A1E"/>
<g clip-path="url(#clip0_209_1595)">
<path d="M16.5 28L29.5 28L32 18L14 18L16.5 28Z" fill="#262626"/>
<path d="M34.5 15L32.75 15L32 18M32 18L29.5 28L16.5 28L14 18L32 18Z" stroke="#262626" stroke-width="1.5" stroke-linecap="round" stroke-linejoin="round"/>
<path d="M29.5 33C28.6716 33 28 32.3284 28 31.5C28 30.6716 28.6716 30 29.5 30C30.3284 30 31 30.6716 31 31.5C31 32.3284 30.3284 33 29.5 33Z" stroke="#262626" stroke-width="2" stroke-linecap="round" stroke-linejoin="round"/>
<path d="M16.5 33C15.6716 33 15 32.3284 15 31.5C15 30.6716 15.6716 30 16.5 30C17.3284 30 18 30.6716 18 31.5C18 32.3284 17.3284 33 16.5 33Z" stroke="#262626" stroke-width="2" stroke-linecap="round" stroke-linejoin="round"/>
</g>
<defs>
<clipPath id="clip0_209_1595">
<rect width="24" height="24" fill="white" transform="matrix(-1 -1.19249e-08 -1.19249e-08 1 36 12)"/>
</clipPath>
</defs>
</svg>
