<svg width="64" height="64" viewBox="0 0 64 64" fill="none" xmlns="http://www.w3.org/2000/svg">
<rect width="64" height="64" rx="32" fill="#EEEEF0"/>
<g clip-path="url(#clip0_666_2925)">
<path d="M24.6762 10.4801C20.18 12.0399 16.3025 15.0004 13.6132 18.9267C10.9239 22.8531 9.56463 27.5384 9.73496 32.2944C9.9053 37.0504 11.5963 41.6265 14.5596 45.3504C17.5229 49.0743 21.6022 51.7499 26.1985 52.984C29.9248 53.9455 33.8288 53.9877 37.5751 53.107C40.9687 52.3447 44.1063 50.7142 46.6805 48.375C49.3597 45.8661 51.3044 42.6743 52.3055 39.143C53.3937 35.3027 53.5873 31.2642 52.8715 27.3375H31.9465V36.0176H44.0649C43.8227 37.402 43.3037 38.7233 42.5389 39.9025C41.7742 41.0816 40.7794 42.0944 39.6141 42.8801C38.1343 43.8589 36.4662 44.5176 34.7168 44.8137C32.9624 45.1399 31.1627 45.1399 29.4083 44.8137C27.63 44.446 25.9478 43.7121 24.4688 42.6586C22.0928 40.9767 20.3087 38.5872 19.3711 35.8313C18.4178 33.0237 18.4178 29.9799 19.3711 27.1723C20.0385 25.2043 21.1417 23.4124 22.5985 21.9305C24.2656 20.2034 26.3761 18.9689 28.6986 18.3624C31.0211 17.7559 33.4658 17.8008 35.7645 18.4922C37.5602 19.0434 39.2022 20.0065 40.5598 21.3047C41.9262 19.9453 43.2903 18.5824 44.652 17.216C45.3551 16.4813 46.1215 15.7816 46.8141 15.0293C44.7419 13.1009 42.3095 11.6004 39.6563 10.6137C34.8248 8.85934 29.5382 8.81219 24.6762 10.4801Z" fill="white"/>
<path d="M24.6761 10.4801C29.5377 8.81106 34.8242 8.85697 39.6561 10.6102C42.3098 11.6035 44.7411 13.1113 46.8104 15.0469C46.1073 15.7992 45.3655 16.5023 44.6483 17.2336C43.2843 18.5953 41.9214 19.9523 40.5597 21.3047C39.2021 20.0065 37.56 19.0434 35.7644 18.4922C33.4665 17.7983 31.0218 17.7508 28.6987 18.3549C26.3756 18.9589 24.2637 20.1912 22.5948 21.9164C21.1381 23.3984 20.0348 25.1902 19.3675 27.1582L12.0796 21.5156C14.6882 16.3426 19.2049 12.3856 24.6761 10.4801Z" fill="#E33629"/>
<path d="M10.1459 27.1055C10.5376 25.1641 11.1879 23.2841 12.0795 21.5156L19.3674 27.1723C18.414 29.9799 18.414 33.0237 19.3674 35.8313C16.9392 37.7063 14.51 39.5906 12.0795 41.4844C9.84759 37.0417 9.1669 31.9799 10.1459 27.1055Z" fill="#F8BD00"/>
<path d="M31.9464 27.334H52.8714C53.5872 31.2607 53.3935 35.2992 52.3054 39.1395C51.3043 42.6708 49.3596 45.8625 46.6804 48.3715C44.3284 46.5363 41.9659 44.7152 39.614 42.8801C40.78 42.0936 41.7753 41.0797 42.5401 39.8993C43.3048 38.7189 43.8234 37.3962 44.0647 36.0105H31.9464C31.9429 33.1207 31.9464 30.2273 31.9464 27.334Z" fill="#587DBD"/>
<path d="M12.0762 41.4844C14.5066 39.6094 16.9359 37.725 19.3641 35.8313C20.3035 38.5882 22.0901 40.9778 24.4688 42.6586C25.9524 43.7072 27.6382 44.4352 29.4188 44.7961C31.1732 45.1223 32.9729 45.1223 34.7273 44.7961C36.4767 44.5 38.1448 43.8414 39.6246 42.8625C41.9766 44.6977 44.3391 46.5188 46.691 48.3539C44.1172 50.6944 40.9796 52.3261 37.5855 53.0895C33.8393 53.9701 29.9353 53.9279 26.209 52.9664C23.2618 52.1795 20.509 50.7923 18.123 48.8918C15.5976 46.8868 13.535 44.3601 12.0762 41.4844Z" fill="#319F43"/>
</g>
<defs>
<clipPath id="clip0_666_2925">
<rect width="45" height="45" fill="white" transform="translate(9 9)"/>
</clipPath>
</defs>
</svg>
