<svg width="48" height="48" viewBox="0 0 48 48" fill="none" xmlns="http://www.w3.org/2000/svg">
<g clip-path="url(#clip0_738_6622)">
<circle cx="24" cy="24" r="24" fill="#E6E6E6"/>
<path d="M12.0676 33.7751C10.5156 33.7751 9.28041 33.3422 8.36191 32.4765C7.45398 31.6003 7 30.3967 7 28.8659C7 28.074 7.14253 27.3403 7.42758 26.6646C7.72319 25.9784 8.22995 25.3766 8.94785 24.8593C9.67631 24.3314 10.6898 23.9091 11.9884 23.5924C13.2975 23.2757 14.9656 23.091 16.9926 23.0381C16.9926 22.0775 16.7498 21.3859 16.2642 20.9636C15.789 20.5414 15.0712 20.3302 14.1104 20.3302C13.2447 20.3302 12.5374 20.478 11.9884 20.7736C11.4394 21.0693 11.0963 21.2698 10.959 21.3754C10.8112 21.502 10.6318 21.5496 10.4206 21.5179C10.1356 21.4756 9.82939 21.4018 9.50212 21.2962C9.18539 21.1907 8.84228 21.0693 8.47277 20.932C8.41998 20.9109 8.36191 20.8792 8.29857 20.8369C8.23522 20.7842 8.19827 20.7102 8.18772 20.6152C8.18772 20.5624 8.19299 20.4991 8.20356 20.4253C8.21411 20.3407 8.24051 20.1929 8.28274 19.9818C8.32496 19.7707 8.3883 19.512 8.47277 19.2058C8.55722 18.8891 8.63641 18.6462 8.71031 18.4774C8.80533 18.2979 8.96369 18.1289 9.18539 17.9705C9.36486 17.8228 9.90857 17.5853 10.8165 17.258C11.7245 16.9307 13.0389 16.7671 14.7597 16.7671C19.5 16.7671 21.8701 19.0739 21.8701 23.6874V32.6507C21.8701 32.8513 21.8121 33.0255 21.696 33.1733C21.5903 33.3106 21.4056 33.3792 21.1417 33.3792H18.7662C18.5974 33.3792 18.4443 33.358 18.307 33.3158C18.1803 33.2631 18.0589 33.1681 17.9428 33.0308L16.9609 31.7638H16.8501C16.3645 32.4712 15.7099 32.9833 14.8864 33.3C14.0735 33.6167 13.1339 33.7751 12.0676 33.7751ZM13.8095 30.101C14.7808 30.101 15.5146 29.853 16.0108 29.3568C16.507 28.8606 16.8237 28.3486 16.9609 27.8207V26.0629C15.4935 26.0629 14.3902 26.179 13.6512 26.4113C12.9227 26.6329 12.4371 26.9286 12.1943 27.2981C11.9514 27.657 11.83 28.0476 11.83 28.47C11.83 29.0823 12.0201 29.5099 12.4001 29.7527C12.7802 29.9849 13.25 30.101 13.8095 30.101Z" fill="#26262B"/>
<path d="M9.15211 16.0304C8.15608 15.4353 7.82193 14.1365 8.52667 13.2148C10.4428 10.7089 12.9798 8.72846 15.9022 7.47927C19.4709 5.95372 23.431 5.59714 27.2149 6.46064C30.9988 7.32414 34.4122 9.3634 36.9658 12.2861C39.5196 15.2088 41.0824 18.865 41.4304 22.7306C41.7784 26.5961 40.8936 30.4725 38.903 33.8044C36.9124 37.1362 33.9182 39.7523 30.3494 41.2777C26.7805 42.8032 22.8204 43.1597 19.0365 42.296C15.9382 41.5888 13.0882 40.0933 10.7553 37.9699C9.89724 37.189 9.99405 35.8513 10.8678 35.088C11.7415 34.3246 13.06 34.4285 13.944 35.1799C15.6733 36.6499 17.7387 37.6901 19.9715 38.1998C22.8903 38.8659 25.9451 38.591 28.698 37.4142C31.4509 36.2376 33.7606 34.2195 35.2962 31.6495C36.8318 29.0793 37.5142 26.0891 37.2457 23.1072C36.9773 20.1254 35.7718 17.3052 33.8018 15.0506C31.832 12.796 29.199 11.223 26.2801 10.5569C23.3613 9.8908 20.3065 10.1659 17.5536 11.3427C15.4478 12.2428 13.6014 13.6352 12.1624 15.3905C11.4269 16.2878 10.1481 16.6254 9.15211 16.0304Z" fill="#26262B"/>
<path d="M24.4796 15.1235C23.9156 15.741 23.6202 16.5572 23.658 17.3927C23.6959 18.228 24.0641 19.0142 24.6816 19.5782C25.2991 20.1421 26.1153 20.4376 26.9508 20.3998C27.7861 20.3618 28.5723 19.9937 29.1362 19.3762C29.7002 18.7587 29.9957 17.9425 29.9578 17.107C29.92 16.2716 29.5517 15.4855 28.9342 14.9215C28.3167 14.3576 27.5005 14.062 26.6652 14.0999C25.8297 14.1378 25.0435 14.506 24.4796 15.1235Z" stroke="#26262B" stroke-width="3" stroke-linecap="round" stroke-linejoin="round"/>
<path d="M34.2559 21.4434L34.258 21.467" stroke="#26262B" stroke-width="2.5" stroke-linecap="round" stroke-linejoin="round"/>
<path d="M28.1749 33.7259C27.8917 33.9008 27.5253 33.7036 27.5154 33.3708L27.4221 30.2394C27.4122 29.9067 27.7662 29.688 28.0594 29.8457L30.8179 31.3307C31.1109 31.4885 31.1234 31.9043 30.8401 32.0794L28.1749 33.7259Z" fill="#26262B"/>
<path d="M25.9024 30.0472C25.6191 30.2221 25.2528 30.0248 25.2429 29.6922L25.1496 26.5607C25.1397 26.228 25.4936 26.0093 25.7868 26.1671L28.5453 27.652C28.8384 27.8098 28.8508 28.2257 28.5676 28.4006L25.9024 30.0472Z" fill="#26262B"/>
</g>
<defs>
<clipPath id="clip0_738_6622">
<rect width="48" height="48" fill="white"/>
</clipPath>
</defs>
</svg>
