<svg width="64" height="64" viewBox="0 0 64 64" fill="none" xmlns="http://www.w3.org/2000/svg">
<g clip-path="url(#clip0_666_2920)">
<rect width="64" height="64" rx="32" fill="#EEEEF0"/>
<path d="M38.875 24.6V34.7625C38.875 35.025 38.675 35.225 38.4125 35.225H36.7875C36.625 35.225 36.4875 35.1375 36.4125 35.0375L31.75 28.75V34.775C31.75 35.0375 31.55 35.2375 31.2875 35.2375H29.6625C29.4 35.2375 29.2 35.0375 29.2 34.775V24.6125C29.2 24.35 29.4 24.15 29.6625 24.15H31.275C31.4125 24.15 31.575 24.225 31.65 24.35L36.3125 30.6375V24.6125C36.3125 24.35 36.5125 24.15 36.775 24.15H38.4C38.6625 24.1375 38.875 24.35 38.875 24.5875V24.6ZM27.1625 24.1375H25.5375C25.275 24.1375 25.075 24.3375 25.075 24.6V34.7625C25.075 35.025 25.275 35.225 25.5375 35.225H27.1625C27.425 35.225 27.625 35.025 27.625 34.7625V24.6C27.625 24.3625 27.425 24.1375 27.1625 24.1375ZM23.2375 32.65H18.7875V24.6C18.7875 24.3375 18.5875 24.1375 18.325 24.1375H16.7C16.4375 24.1375 16.2375 24.3375 16.2375 24.6V34.7625C16.2375 34.8875 16.275 34.9875 16.3625 35.075C16.45 35.15 16.55 35.2 16.675 35.2H23.2C23.4625 35.2 23.6625 35 23.6625 34.7375V33.1125C23.6625 32.875 23.4625 32.65 23.225 32.65H23.2375ZM47.45 24.1375H40.9125C40.675 24.1375 40.45 24.3375 40.45 24.6V34.7625C40.45 35 40.65 35.225 40.9125 35.225H47.4375C47.7 35.225 47.9 35.025 47.9 34.7625V33.125C47.9 32.8625 47.7 32.6625 47.4375 32.6625H43V30.9625H47.4375C47.7 30.9625 47.9 30.7625 47.9 30.5V28.8625C47.9 28.6 47.7 28.4 47.4375 28.4H43V26.6875H47.4375C47.7 26.6875 47.9 26.4875 47.9 26.225V24.6C47.8875 24.3625 47.6875 24.1375 47.4375 24.1375H47.45ZM64 11.675V52.425C63.9875 58.825 58.7375 64.0125 52.325 64H11.575C5.17502 63.9875 -0.0124775 58.725 2.2543e-05 52.325V11.575C0.0125225 5.17502 5.27502 -0.0124775 11.675 2.2543e-05H52.425C58.825 0.0125225 64.0125 5.26252 64 11.675ZM55.2 29.1875C55.2 18.7625 44.7375 10.275 31.9 10.275C19.0625 10.275 8.60002 18.7625 8.60002 29.1875C8.60002 38.525 16.8875 46.3625 28.0875 47.85C30.8125 48.4375 30.5 49.4375 29.8875 53.1125C29.7875 53.7 29.4125 55.4125 31.9 54.375C34.3875 53.3375 45.3125 46.475 50.2125 40.85C53.5875 37.1375 55.2 33.375 55.2 29.2125V29.1875Z" fill="#00B900"/>
</g>
<defs>
<clipPath id="clip0_666_2920">
<rect width="64" height="64" rx="32" fill="white"/>
</clipPath>
</defs>
</svg>
