<svg width="82" height="37" viewBox="0 0 82 37" fill="none" xmlns="http://www.w3.org/2000/svg">
<path d="M5.91722 26.7378C5.71224 26.8257 5.56581 26.8696 5.47796 26.8696C5.3901 26.8696 5.29736 26.8354 5.19974 26.7671C4.97522 26.6108 4.71652 26.23 4.42366 25.6245C4.14057 25.0093 3.99902 24.0669 3.99902 22.7974V5.83445C3.99902 5.60008 4.04782 5.41941 4.14545 5.29246C4.55545 4.75535 5.15581 4.17431 5.94654 3.5493C6.08321 3.45165 6.20525 3.40282 6.31261 3.40282C6.43949 3.40282 6.56154 3.45165 6.67868 3.5493C7.09843 3.87157 7.44988 4.17431 7.73296 4.4575C8.02583 4.7407 8.27475 5.01902 8.47979 5.29246C8.57735 5.41941 8.62619 5.60008 8.62619 5.83445V21.9038C8.62619 22.5483 8.67987 23.1001 8.78729 23.5591C8.89464 24.0083 9.02152 24.3696 9.16799 24.6431C9.33392 24.9653 9.27045 25.1948 8.97764 25.3315L5.91722 26.7378Z" fill="#C7CBDA"/>
<path d="M17.8651 26.7964C14.3899 26.7964 12.6523 24.6919 12.6523 20.4829L12.6377 13.0415C12.6377 12.8071 12.6865 12.6265 12.784 12.4995C13.1941 11.9624 13.7944 11.3813 14.5851 10.7563C14.7218 10.6587 14.8439 10.6099 14.9512 10.6099C15.0782 10.6099 15.2001 10.6587 15.3173 10.7563C15.737 11.0786 16.0885 11.3813 16.3716 11.6646C16.6645 11.9478 16.9134 12.2261 17.1184 12.4995C17.216 12.6265 17.2649 12.8071 17.2649 13.0415V20.0728C17.2649 22.1919 18.1043 23.2515 19.7834 23.2515C20.6132 23.2515 21.2769 22.9634 21.7749 22.3872C22.2727 21.8013 22.5216 21.0103 22.5216 20.0142V13.0415C22.5216 12.8071 22.5704 12.6265 22.668 12.4995C23.0781 11.9624 23.6784 11.3813 24.4692 10.7563C24.6058 10.6587 24.7278 10.6099 24.8352 10.6099C24.9622 10.6099 25.0841 10.6587 25.2012 10.7563C25.621 11.0786 25.9725 11.3813 26.2556 11.6646C26.5484 11.9478 26.7974 12.2261 27.0024 12.4995C27.1 12.6265 27.1488 12.8071 27.1488 13.0415V25.7563C27.1488 25.9419 27.0853 26.103 26.9584 26.2397C26.8316 26.3667 26.6704 26.4302 26.4752 26.4302H24.2788C24.1226 26.4302 23.981 26.4106 23.8542 26.3716C23.737 26.3228 23.6248 26.2349 23.5173 26.1079L22.6094 24.936H22.507C22.3508 25.1606 22.1067 25.4194 21.7749 25.7124C21.4527 26.0054 20.9793 26.2593 20.3545 26.4741C19.7394 26.689 18.9097 26.7964 17.8651 26.7964Z" fill="#C7CBDA"/>
<path d="M45.6142 17.0991V25.6538C45.6142 25.9468 45.5508 26.1519 45.4238 26.269C45.3067 26.3765 45.1016 26.4302 44.8089 26.4302H41.7924C41.4995 26.4302 41.2897 26.3765 41.1627 26.269C41.0456 26.1519 40.987 25.9468 40.987 25.6538V17.8608C40.987 16.7964 40.7625 16.02 40.3134 15.5317C39.8644 15.0435 39.2543 14.7993 38.483 14.7993C37.7119 14.7993 37.1165 14.9653 36.6966 15.2974C36.2866 15.6294 35.9693 16.0493 35.7448 16.5571V25.6538C35.7448 25.9468 35.6814 26.1519 35.5545 26.269C35.4373 26.3765 35.2324 26.4302 34.9394 26.4302H31.923C31.6302 26.4302 31.4203 26.3765 31.2934 26.269C31.1762 26.1519 31.1177 25.9468 31.1177 25.6538V13.3784C31.1177 13.144 31.1665 12.9634 31.2641 12.8364C31.4691 12.563 31.7131 12.2847 31.9963 12.0015C32.2892 11.7183 32.6454 11.4155 33.0651 11.0933C33.1921 10.9956 33.3141 10.9468 33.4312 10.9468C33.5387 10.9468 33.6607 10.9956 33.7973 11.0933C34.2073 11.4155 34.5588 11.7231 34.8516 12.0161C35.1445 12.3091 35.4032 12.6118 35.6277 12.9243H35.7009C35.8669 12.7095 36.1158 12.4604 36.4477 12.1772C36.7796 11.8843 37.2433 11.6255 37.8388 11.4009C38.444 11.1763 39.2153 11.064 40.1524 11.064C41.0699 11.064 41.9437 11.2495 42.7734 11.6206C43.6032 11.9917 44.2817 12.6167 44.8089 13.4956C45.3458 14.3745 45.6142 15.5757 45.6142 17.0991Z" fill="#C7CBDA"/>
<path d="M53.4475 26.7964C52.0125 26.7964 50.8703 26.396 50.021 25.5952C49.1816 24.7847 48.7617 23.6714 48.7617 22.2554C48.7617 21.5229 48.8935 20.8442 49.1572 20.2192C49.4304 19.5845 49.899 19.0278 50.5628 18.5493C51.2364 18.061 52.1735 17.6704 53.3743 17.3774C54.5847 17.0845 56.1272 16.9136 58.0014 16.8647C58.0014 15.9761 57.7771 15.3364 57.328 14.9458C56.8886 14.5552 56.2248 14.3599 55.3364 14.3599C54.5359 14.3599 53.8819 14.4966 53.3743 14.77C52.8667 15.0435 52.5494 15.229 52.4226 15.3267C52.2858 15.4438 52.1198 15.4878 51.9246 15.4585C51.661 15.4194 51.378 15.3511 51.0754 15.2534C50.7825 15.1558 50.4653 15.0435 50.1236 14.9165C50.0747 14.897 50.021 14.8677 49.9625 14.8286C49.9039 14.7798 49.8697 14.7114 49.86 14.6235C49.86 14.5747 49.8649 14.5161 49.8746 14.4478C49.8844 14.3696 49.9088 14.2329 49.9479 14.0376C49.9869 13.8423 50.0454 13.603 50.1236 13.3198C50.2017 13.0269 50.2748 12.8022 50.3432 12.646C50.4311 12.48 50.5776 12.3237 50.7825 12.1772C50.9484 12.0405 51.4512 11.8208 52.2907 11.5181C53.1303 11.2153 54.3456 11.064 55.9368 11.064C60.3199 11.064 62.5114 13.1978 62.5114 17.4653V25.7563C62.5114 25.9419 62.4579 26.103 62.3503 26.2397C62.253 26.3667 62.0817 26.4302 61.838 26.4302H59.6414C59.4854 26.4302 59.3437 26.4106 59.2167 26.3716C59.0995 26.3228 58.9873 26.2349 58.8803 26.1079L57.9724 24.936H57.8699C57.4208 25.5903 56.8154 26.064 56.054 26.3569C55.3023 26.6499 54.4335 26.7964 53.4475 26.7964ZM55.0583 23.3979C55.9563 23.3979 56.6348 23.1685 57.0935 22.7095C57.5523 22.2505 57.8454 21.7769 57.9724 21.2886V19.6626C56.6153 19.6626 55.5952 19.77 54.9118 19.9849C54.2383 20.1899 53.7891 20.4634 53.5646 20.8052C53.3401 21.1372 53.2278 21.4985 53.2278 21.8892C53.2278 22.4556 53.4036 22.8511 53.7551 23.0757C54.1064 23.2905 54.5408 23.3979 55.0583 23.3979Z" fill="#C7CBDA"/>
<path d="M50.7515 10.3823C49.8306 9.83187 49.5216 8.63045 50.1732 7.77791C51.945 5.45997 54.2909 3.62802 56.9931 2.47253C60.293 1.0614 63.9548 0.731556 67.4533 1.5303C70.9524 2.32903 74.1082 4.21535 76.4694 6.91888C78.8311 9.62239 80.2758 13.0043 80.5974 16.58C80.9196 20.1556 80.1016 23.7413 78.2607 26.8233C76.4204 29.9052 73.6517 32.3251 70.3519 33.7361C67.0515 35.1472 63.3902 35.4769 59.8911 34.678C57.0262 34.0239 54.391 32.6405 52.2339 30.6764C51.4405 29.954 51.53 28.7167 52.3379 28.0106C53.1458 27.3045 54.3649 27.4006 55.1824 28.0956C56.7813 29.4554 58.6912 30.4176 60.7558 30.889C63.4545 31.5052 66.279 31.2509 68.8246 30.1624C71.3702 29.074 73.506 27.2073 74.9256 24.83C76.3459 22.4526 76.9766 19.6866 76.7284 16.9284C76.4802 14.1702 75.3656 11.5615 73.5441 9.47598C71.7226 7.39055 69.288 5.93548 66.5892 5.31933C63.8899 4.70319 61.0654 4.95763 58.5198 6.04614C56.5728 6.87881 54.8656 8.16681 53.5351 9.79037C52.8549 10.6204 51.6725 10.9327 50.7515 10.3823Z" fill="#C7CBDA"/>
<path d="M64.925 9.54345C64.4036 10.1146 64.1303 10.8696 64.1651 11.6424C64.2003 12.4151 64.5408 13.1423 65.1117 13.664C65.6826 14.1856 66.4374 14.459 67.2099 14.424C67.9823 14.3889 68.7092 14.0484 69.2306 13.4772C69.7521 12.906 70.0253 12.151 69.9906 11.3782C69.9553 10.6054 69.6149 9.87827 69.0439 9.35662C68.473 8.83498 67.7182 8.56158 66.9458 8.59664C66.1733 8.63165 65.4464 8.97222 64.925 9.54345Z" stroke="#C7CBDA" stroke-width="3" stroke-linecap="round" stroke-linejoin="round"/>
<path d="M73.9648 15.3896L73.9665 15.4119" stroke="#C7CBDA" stroke-width="2.5" stroke-linecap="round" stroke-linejoin="round"/>
<path d="M3.87876 33.124C3.6666 33.347 3.29259 33.2567 3.20554 32.9614L1.88349 28.4757C1.79644 28.1804 2.06165 27.9015 2.36086 27.9738L6.90508 29.0712C7.20432 29.1435 7.3131 29.5127 7.10095 29.7358L3.87876 33.124Z" fill="#C7CBDA"/>
<path d="M10.7496 33.4149C10.4998 33.5947 10.1489 33.4368 10.118 33.1304L9.6491 28.4775C9.61819 28.1711 9.93047 27.9462 10.211 28.0726L14.4737 29.9928C14.7542 30.1192 14.7928 30.5022 14.5432 30.682L10.7496 33.4149Z" fill="#C7CBDA"/>
</svg>
