<svg width="82" height="37" viewBox="0 0 82 37" fill="none" xmlns="http://www.w3.org/2000/svg">
<path d="M5.9182 26.7378C5.71322 26.8257 5.56679 26.8696 5.47894 26.8696C5.39108 26.8696 5.29834 26.8354 5.20072 26.7671C4.9762 26.6108 4.7175 26.23 4.42464 25.6245C4.14154 25.0093 4 24.0669 4 22.7974V5.83447C4 5.6001 4.0488 5.41943 4.14642 5.29248C4.55643 4.75537 5.15679 4.17432 5.94752 3.54932C6.08419 3.45166 6.20623 3.40283 6.31359 3.40283C6.44047 3.40283 6.56251 3.45166 6.67966 3.54932C7.09941 3.87158 7.45085 4.17432 7.73393 4.45752C8.0268 4.74072 8.27573 5.01904 8.48076 5.29248C8.57833 5.41943 8.62717 5.6001 8.62717 5.83447V21.9038C8.62717 22.5483 8.68085 23.1001 8.78826 23.5591C8.89562 24.0083 9.0225 24.3696 9.16896 24.6431C9.33489 24.9653 9.27143 25.1948 8.97861 25.3315L5.9182 26.7378Z" fill="#000A1E"/>
<path d="M17.8641 26.7964C14.3889 26.7964 12.6513 24.6919 12.6513 20.4829L12.6367 13.0415C12.6367 12.8071 12.6855 12.6265 12.7831 12.4995C13.1931 11.9624 13.7935 11.3813 14.5842 10.7563C14.7208 10.6587 14.8429 10.6099 14.9502 10.6099C15.0772 10.6099 15.1992 10.6587 15.3163 10.7563C15.7361 11.0786 16.0875 11.3813 16.3706 11.6646C16.6635 11.9478 16.9124 12.2261 17.1174 12.4995C17.215 12.6265 17.2639 12.8071 17.2639 13.0415V20.0728C17.2639 22.1919 18.1033 23.2515 19.7824 23.2515C20.6122 23.2515 21.2759 22.9634 21.7739 22.3872C22.2717 21.8013 22.5206 21.0103 22.5206 20.0142V13.0415C22.5206 12.8071 22.5695 12.6265 22.667 12.4995C23.0771 11.9624 23.6775 11.3813 24.4682 10.7563C24.6048 10.6587 24.7268 10.6099 24.8343 10.6099C24.9612 10.6099 25.0831 10.6587 25.2003 10.7563C25.62 11.0786 25.9715 11.3813 26.2546 11.6646C26.5475 11.9478 26.7964 12.2261 27.0014 12.4995C27.099 12.6265 27.1478 12.8071 27.1478 13.0415V25.7563C27.1478 25.9419 27.0844 26.103 26.9574 26.2397C26.8306 26.3667 26.6695 26.4302 26.4742 26.4302H24.2778C24.1216 26.4302 23.9801 26.4106 23.8532 26.3716C23.736 26.3228 23.6238 26.2349 23.5163 26.1079L22.6084 24.936H22.506C22.3498 25.1606 22.1058 25.4194 21.7739 25.7124C21.4517 26.0054 20.9783 26.2593 20.3535 26.4741C19.7384 26.689 18.9087 26.7964 17.8641 26.7964Z" fill="#000A1E"/>
<path d="M45.6137 17.0991V25.6538C45.6137 25.9468 45.5503 26.1519 45.4233 26.269C45.3062 26.3765 45.1011 26.4302 44.8084 26.4302H41.7919C41.499 26.4302 41.2892 26.3765 41.1622 26.269C41.0451 26.1519 40.9865 25.9468 40.9865 25.6538V17.8608C40.9865 16.7964 40.762 16.02 40.3129 15.5317C39.8639 15.0435 39.2538 14.7993 38.4825 14.7993C37.7114 14.7993 37.116 14.9653 36.6961 15.2974C36.2861 15.6294 35.9689 16.0493 35.7444 16.5571V25.6538C35.7444 25.9468 35.6809 26.1519 35.5541 26.269C35.4369 26.3765 35.2319 26.4302 34.9389 26.4302H31.9225C31.6297 26.4302 31.4198 26.3765 31.2929 26.269C31.1758 26.1519 31.1172 25.9468 31.1172 25.6538V13.3784C31.1172 13.144 31.166 12.9634 31.2637 12.8364C31.4686 12.563 31.7127 12.2847 31.9958 12.0015C32.2887 11.7183 32.6449 11.4155 33.0646 11.0933C33.1916 10.9956 33.3136 10.9468 33.4307 10.9468C33.5382 10.9468 33.6602 10.9956 33.7968 11.0933C34.2069 11.4155 34.5583 11.7231 34.8511 12.0161C35.144 12.3091 35.4027 12.6118 35.6272 12.9243H35.7004C35.8664 12.7095 36.1153 12.4604 36.4472 12.1772C36.7791 11.8843 37.2428 11.6255 37.8383 11.4009C38.4435 11.1763 39.2148 11.064 40.1519 11.064C41.0694 11.064 41.9432 11.2495 42.7729 11.6206C43.6027 11.9917 44.2812 12.6167 44.8084 13.4956C45.3453 14.3745 45.6137 15.5757 45.6137 17.0991Z" fill="#000A1E"/>
<path d="M53.4475 26.7964C52.0125 26.7964 50.8703 26.396 50.021 25.5951C49.1816 24.7846 48.7617 23.6713 48.7617 22.2553C48.7617 21.5228 48.8935 20.8441 49.1572 20.2191C49.4304 19.5844 49.899 19.0277 50.5628 18.5492C51.2364 18.0609 52.1735 17.6703 53.3743 17.3774C54.5847 17.0844 56.1272 16.9136 58.0014 16.8647C58.0014 15.976 57.7771 15.3363 57.328 14.9457C56.8886 14.5552 56.2248 14.3599 55.3364 14.3599C54.5359 14.3599 53.8819 14.4965 53.3743 14.7699C52.8667 15.0435 52.5494 15.229 52.4226 15.3266C52.2858 15.4437 52.1198 15.4877 51.9246 15.4584C51.661 15.4193 51.378 15.3511 51.0754 15.2533C50.7825 15.1558 50.4653 15.0435 50.1236 14.9165C50.0747 14.8969 50.021 14.8676 49.9625 14.8286C49.9039 14.7797 49.8697 14.7114 49.86 14.6234C49.86 14.5746 49.8649 14.5161 49.8746 14.4478C49.8844 14.3695 49.9088 14.2329 49.9479 14.0376C49.9869 13.8423 50.0454 13.603 50.1236 13.3198C50.2017 13.0268 50.2748 12.8022 50.3432 12.646C50.4311 12.4799 50.5776 12.3237 50.7825 12.1772C50.9484 12.0404 51.4512 11.8208 52.2907 11.518C53.1303 11.2153 54.3456 11.064 55.9368 11.064C60.3199 11.064 62.5114 13.1977 62.5114 17.4652V25.7563C62.5114 25.9418 62.4579 26.1029 62.3503 26.2397C62.253 26.3667 62.0817 26.4301 61.838 26.4301H59.6414C59.4854 26.4301 59.3437 26.4105 59.2167 26.3715C59.0995 26.3228 58.9873 26.2348 58.8803 26.1078L57.9724 24.9359H57.8699C57.4208 25.5902 56.8154 26.0639 56.054 26.3569C55.3023 26.6498 54.4335 26.7964 53.4475 26.7964ZM55.0583 23.3978C55.9563 23.3978 56.6348 23.1684 57.0935 22.7095C57.5523 22.2504 57.8454 21.7768 57.9724 21.2885V19.6625C56.6153 19.6625 55.5952 19.77 54.9118 19.9848C54.2383 20.1899 53.7891 20.4633 53.5646 20.8052C53.3401 21.1371 53.2278 21.4984 53.2278 21.8891C53.2278 22.4555 53.4036 22.851 53.7551 23.0756C54.1064 23.2905 54.5408 23.3978 55.0583 23.3978Z" fill="#000A1E"/>
<path d="M50.751 10.3824C49.8301 9.83191 49.5211 8.63049 50.1728 7.77796C51.9445 5.46002 54.2904 3.62807 56.9927 2.47257C60.2925 1.06144 63.9543 0.731602 67.4528 1.53034C70.9519 2.32908 74.1077 4.21539 76.4689 6.91893C78.8306 9.62243 80.2753 13.0043 80.5969 16.58C80.9191 20.1557 80.1011 23.7413 78.2603 26.8233C76.4199 29.9052 73.6512 32.3251 70.3514 33.7361C67.051 35.1473 63.3897 35.4769 59.8906 34.678C57.0257 34.0239 54.3905 32.6405 52.2334 30.6764C51.44 29.954 51.5295 28.7167 52.3374 28.0106C53.1453 27.3045 54.3645 27.4006 55.1819 28.0956C56.7808 29.4555 58.6907 30.4176 60.7553 30.889C63.454 31.5053 66.2785 31.2509 68.8241 30.1624C71.3697 29.074 73.5055 27.2073 74.9251 24.83C76.3454 22.4526 76.9761 19.6866 76.7279 16.9285C76.4797 14.1702 75.3652 11.5615 73.5436 9.47603C71.7221 7.39059 69.2875 5.93553 66.5887 5.31938C63.8895 4.70324 61.0649 4.95767 58.5193 6.04619C56.5723 6.87886 54.8651 8.16685 53.5346 9.79041C52.8544 10.6204 51.672 10.9327 50.751 10.3824Z" fill="#000A1E"/>
<path d="M64.925 9.54343C64.4036 10.1146 64.1303 10.8696 64.1651 11.6424C64.2003 12.4151 64.5408 13.1423 65.1117 13.664C65.6826 14.1856 66.4374 14.459 67.2099 14.424C67.9823 14.3889 68.7092 14.0484 69.2306 13.4772C69.7521 12.906 70.0253 12.151 69.9906 11.3782C69.9553 10.6054 69.6149 9.87825 69.0439 9.35661C68.473 8.83497 67.7182 8.56156 66.9458 8.59663C66.1733 8.63164 65.4464 8.97221 64.925 9.54343Z" stroke="#000A1E" stroke-width="3" stroke-linecap="round" stroke-linejoin="round"/>
<path d="M73.9648 15.3896L73.9665 15.412" stroke="#000A1E" stroke-width="2.5" stroke-linecap="round" stroke-linejoin="round"/>
<path d="M3.87925 33.1239C3.66709 33.3469 3.29308 33.2566 3.20603 32.9613L1.88398 28.4756C1.79693 28.1803 2.06214 27.9014 2.36135 27.9737L6.90557 29.0711C7.20481 29.1434 7.31359 29.5126 7.10144 29.7357L3.87925 33.1239Z" fill="#000A1E"/>
<path d="M10.7491 33.4149C10.4993 33.5948 10.1484 33.4368 10.1175 33.1304L9.64861 28.4775C9.6177 28.1711 9.92998 27.9462 10.2106 28.0726L14.4732 29.9928C14.7538 30.1192 14.7923 30.5022 14.5427 30.6821L10.7491 33.4149Z" fill="#000A1E"/>
</svg>
