<svg width="40" height="40" viewBox="0 0 40 40" fill="none" xmlns="http://www.w3.org/2000/svg">
<path d="M8.51386 28.9691C6.96192 28.9691 5.7267 28.5362 4.8082 27.6705C3.90027 26.7943 3.44629 25.5907 3.44629 24.0599C3.44629 23.268 3.58882 22.5343 3.87387 21.8586C4.16948 21.1724 4.67624 20.5706 5.39414 20.0533C6.1226 19.5254 7.13612 19.1031 8.43468 18.7864C9.7438 18.4697 11.4119 18.285 13.4389 18.2321C13.4389 17.2715 13.1961 16.5799 12.7105 16.1576C12.2353 15.7353 11.5175 15.5242 10.5567 15.5242C9.69101 15.5242 8.98366 15.672 8.43468 15.9676C7.88569 16.2632 7.54258 16.4638 7.40533 16.5694C7.25752 16.696 7.07805 16.7436 6.86691 16.7119C6.58185 16.6696 6.27568 16.5958 5.94841 16.4902C5.63168 16.3846 5.28857 16.2632 4.91906 16.1259C4.86627 16.1049 4.8082 16.0732 4.74486 16.0309C4.68151 15.9782 4.64456 15.9042 4.63401 15.8092C4.63401 15.7564 4.63928 15.6931 4.64985 15.6192C4.6604 15.5347 4.6868 15.3869 4.72902 15.1758C4.77125 14.9646 4.83459 14.7059 4.91906 14.3998C5.00351 14.0831 5.0827 13.8402 5.1566 13.6713C5.25162 13.4919 5.40998 13.3229 5.63168 13.1645C5.81115 13.0168 6.35486 12.7792 7.26281 12.452C8.17074 12.1246 9.48514 11.9611 11.206 11.9611C15.9462 11.9611 18.3164 14.2679 18.3164 18.8814V27.8446C18.3164 28.0453 18.2584 28.2195 18.1422 28.3672C18.0366 28.5045 17.8519 28.5732 17.588 28.5732H15.2125C15.0437 28.5732 14.8906 28.552 14.7533 28.5098C14.6266 28.4571 14.5052 28.362 14.3891 28.2248L13.4072 26.9578H13.2964C12.8108 27.6652 12.1562 28.1773 11.3327 28.4939C10.5198 28.8107 9.58016 28.9691 8.51386 28.9691ZM10.2558 25.295C11.2271 25.295 11.9608 25.047 12.4571 24.5508C12.9533 24.0546 13.27 23.5426 13.4072 23.0147V21.2569C11.9398 21.2569 10.8365 21.373 10.0975 21.6053C9.36901 21.8269 8.88337 22.1226 8.64055 22.4921C8.39773 22.851 8.27632 23.2416 8.27632 23.664C8.27632 24.2763 8.46635 24.7039 8.84642 24.9467C9.22648 25.1789 9.69629 25.295 10.2558 25.295Z" fill="#C7CBDA"/>
<path d="M5.5984 11.2241C4.60237 10.629 4.26822 9.33023 4.97296 8.40857C6.88911 5.90268 9.42613 3.9222 12.3484 2.67301C15.9172 1.14746 19.8773 0.790881 23.6612 1.65438C27.4451 2.51788 30.8585 4.55714 33.4121 7.47986C35.9658 10.4026 37.5287 14.0587 37.8767 17.9243C38.2247 21.7898 37.3399 25.6663 35.3493 28.9982C33.3587 32.3299 30.3644 34.946 26.7957 36.4715C23.2268 37.997 19.2667 38.3534 15.4828 37.4897C12.3844 36.7826 9.53445 35.287 7.20156 33.1637C6.34353 32.3827 6.44034 31.0451 7.31408 30.2817C8.18782 29.5184 9.50629 29.6223 10.3903 30.3736C12.1196 31.8437 14.185 32.8839 16.4177 33.3935C19.3366 34.0597 22.3914 33.7847 25.1443 32.608C27.8972 31.4313 30.2069 29.4133 31.7425 26.8432C33.2781 24.2731 33.9604 21.2828 33.692 18.301C33.4236 15.3191 32.2181 12.4989 30.2481 10.2443C28.2783 7.98978 25.6453 6.41673 22.7264 5.75064C19.8076 5.08454 16.7528 5.3596 13.9999 6.53639C11.8941 7.43656 10.0477 8.82898 8.60872 10.5842C7.87316 11.4815 6.59442 11.8191 5.5984 11.2241Z" fill="#C7CBDA"/>
<path d="M20.9259 10.3172C20.3619 10.9347 20.0665 11.7509 20.1043 12.5864C20.1421 13.4217 20.5104 14.2079 21.1279 14.7719C21.7454 15.3358 22.5616 15.6314 23.3971 15.5935C24.2324 15.5556 25.0186 15.1875 25.5825 14.5699C26.1465 13.9524 26.442 13.1362 26.4041 12.3008C26.3663 11.4653 25.998 10.6792 25.3805 10.1153C24.763 9.55131 23.9468 9.25577 23.1114 9.29364C22.276 9.33151 21.4898 9.6997 20.9259 10.3172Z" stroke="#C7CBDA" stroke-width="3" stroke-linecap="round" stroke-linejoin="round"/>
<path d="M30.7021 16.6374L30.7043 16.661" stroke="#C7CBDA" stroke-width="2.5" stroke-linecap="round" stroke-linejoin="round"/>
<path d="M24.6212 28.9198C24.338 29.0947 23.9716 28.8975 23.9617 28.5648L23.8684 25.4333C23.8585 25.1006 24.2125 24.8819 24.5057 25.0397L27.2641 26.5246C27.5572 26.6824 27.5697 27.0983 27.2864 27.2733L24.6212 28.9198Z" fill="#C7CBDA"/>
<path d="M22.3487 25.2411C22.0654 25.416 21.699 25.2187 21.6892 24.8861L21.5959 21.7546C21.586 21.4218 21.9399 21.2031 22.2331 21.361L24.9916 22.8458C25.2847 23.0037 25.2971 23.4196 25.0139 23.5945L22.3487 25.2411Z" fill="#C7CBDA"/>
</svg>
